<?xml version="1.0" encoding="UTF-8" standalone="no" ?>
<!DOCTYPE svg PUBLIC "-//W3C//DTD SVG 1.1//EN" "http://www.w3.org/Graphics/SVG/1.1/DTD/svg11.dtd">
<svg xmlns="http://www.w3.org/2000/svg" xmlns:xlink="http://www.w3.org/1999/xlink" version="1.1" width="1080" height="1080" viewBox="0 0 1080 1080" xml:space="preserve">
<desc>Created with Fabric.js 4.2.0</desc>
<defs>
</defs>
<rect x="0" y="0" width="100%" height="100%" fill="transparent"></rect>
<g transform="matrix(1 0 0 1 540 540)" id="0d703cdc-0bd8-4f43-b95f-98ac4b23956e"  >
<rect style="stroke: none; stroke-width: 1; stroke-dasharray: none; stroke-linecap: butt; stroke-dashoffset: 0; stroke-linejoin: miter; stroke-miterlimit: 4; fill: rgb(0,0,0); fill-opacity: 0; fill-rule: nonzero; opacity: 1;" vector-effect="non-scaling-stroke"  x="-540" y="-540" rx="0" ry="0" width="1080" height="1080" />
</g>
<g transform="matrix(1 0 0 1 540 540)" id="3b22e53f-b204-4917-a0b1-dce1ea2786ce"  >
</g>
<g transform="matrix(6.54 0 0 6.54 771.18 570.18)"  >
<path style="stroke: none; stroke-width: 1; stroke-dasharray: none; stroke-linecap: butt; stroke-dashoffset: 0; stroke-linejoin: miter; stroke-miterlimit: 4; fill: rgb(255,76,96); fill-rule: nonzero; opacity: 1;" vector-effect="non-scaling-stroke"  transform=" translate(-102.65, -22.27)" d="M 105.048 25.56 C 105.312 25.56 105.528 25.47 105.696 25.29 C 105.864 25.11 105.948 24.9 105.948 24.66 L 105.948 24.66 L 105.948 19.908 C 105.948 19.644 105.864 19.422 105.696 19.242 C 105.528 19.062 105.312 18.972 105.048 18.972 L 105.048 18.972 L 100.296 18.972 C 100.032 18.972 99.81 19.062 99.63 19.242 C 99.45 19.422 99.36 19.644 99.36 19.908 L 99.36 19.908 L 99.36 24.66 C 99.36 24.924 99.45 25.14 99.63 25.308 C 99.81 25.476 100.032 25.56 100.296 25.56 L 100.296 25.56 L 105.048 25.56 Z" stroke-linecap="round" />
</g>
<g transform="matrix(1.61 0 0 1.61 486.31 540)" style="" id="60263add-b8bf-44c2-b34f-8dda03ab365c"  >
		<text xml:space="preserve" font-family="Raleway" font-size="105" font-style="normal" font-weight="900" style="stroke: none; stroke-width: 1; stroke-dasharray: none; stroke-linecap: butt; stroke-dashoffset: 0; stroke-linejoin: miter; stroke-miterlimit: 4; fill: rgb(255,255,255); fill-rule: nonzero; opacity: 1; white-space: pre;" ><tspan x="-156.4" y="32.98" >patti8</tspan></text>
</g>
</svg>